<svg width="120" height="120" viewBox="0 0 120 120" fill="none" xmlns="http://www.w3.org/2000/svg">
<g clip-path="url(#clip0_283_22)">
<path fill-rule="evenodd" clip-rule="evenodd" d="M94.0001 120H26.0001C22.5838 120.007 19.1998 119.339 16.0422 118.035C12.8847 116.731 10.0157 114.816 7.60005 112.4C5.18437 109.984 3.26948 107.115 1.96528 103.958C0.661075 100.8 -0.0067749 97.4163 5.1812e-05 94.0001V26.0001C-0.0067749 22.5838 0.661075 19.1998 1.96528 16.0422C3.26948 12.8847 5.18437 10.0157 7.60005 7.60005C10.0157 5.18437 12.8847 3.26948 16.0422 1.96528C19.1998 0.661075 22.5838 -0.0067749 26.0001 5.1812e-05H94.0001C97.4163 -0.0067749 100.8 0.661075 103.958 1.96528C107.115 3.26948 109.984 5.18437 112.4 7.60005C114.816 10.0157 116.731 12.8847 118.035 16.0422C119.339 19.1998 120.007 22.5838 120 26.0001V94.0001C120.007 97.4163 119.339 100.8 118.035 103.958C116.731 107.115 114.816 109.984 112.4 112.4C109.984 114.816 107.115 116.731 103.958 118.035C100.8 119.339 97.4163 120.007 94.0001 120Z" fill="url(#paint0_linear_283_22)"/>
<path fill-rule="evenodd" clip-rule="evenodd" d="M88.0002 72.5V76C87.999 78.2467 87.7982 80.4889 87.4002 82.7C87.206 83.8271 86.7872 84.9036 86.1688 85.8656C85.5504 86.8276 84.7449 87.6555 83.8002 88.3H83.7002C81.7065 89.813 79.3003 90.6848 76.8002 90.8L74.9002 91C73.4092 91.0914 71.9175 90.8314 70.5453 90.2408C69.1731 89.6503 67.9588 88.7457 67.0002 87.6C66.0028 86.3916 65.3469 84.9383 65.1007 83.3909C64.8546 81.8434 65.027 80.2583 65.6002 78.8V78.7C66.1238 77.2737 66.9908 75.9984 68.1245 74.9868C69.2582 73.9752 70.6237 73.2585 72.1002 72.9L79.6002 70.9C80.5436 70.6752 81.3831 70.1378 81.9823 69.3753C82.5815 68.6127 82.905 67.6698 82.9002 66.7V61.6V40.1C82.9071 39.8518 82.8565 39.6053 82.7524 39.3798C82.6483 39.1543 82.4936 38.9559 82.3002 38.8C82.1016 38.6533 81.874 38.5507 81.6326 38.4989C81.3912 38.4472 81.1415 38.4476 80.9002 38.5L48.9002 45C48.333 45.0907 47.8179 45.3838 47.4502 45.825C47.0825 46.2663 46.8871 46.8258 46.9002 47.4V81.6V84.1C46.899 86.3467 46.6982 88.5889 46.3002 90.8C46.106 91.9271 45.6872 93.0036 45.0688 93.9656C44.4504 94.9276 43.6449 95.7555 42.7002 96.4H42.6002C40.6065 97.913 38.2003 98.7848 35.7002 98.9L33.9002 99C32.4092 99.0914 30.9175 98.8314 29.5453 98.2408C28.1731 97.6503 26.9588 96.7457 26.0002 95.6C25.0028 94.3916 24.3469 92.9383 24.1007 91.3909C23.8546 89.8434 24.027 88.2583 24.6002 86.8V86.7C25.1238 85.2737 25.9908 83.9984 27.1245 82.9868C28.2582 81.9752 29.6237 81.2585 31.1002 80.9L38.6002 78.9C39.5436 78.6752 40.3832 78.1378 40.9823 77.3753C41.5815 76.6127 41.905 75.6698 41.9002 74.7V69.6V29.9C41.9113 29.0469 42.2155 28.2235 42.7617 27.568C43.308 26.9125 44.063 26.4648 44.9002 26.3L85.0002 19C85.7373 18.9136 86.4812 19.0907 87.1002 19.5C87.3811 19.7307 87.6075 20.0207 87.7631 20.3492C87.9187 20.6777 87.9997 21.0365 88.0002 21.4V72.5Z" fill="#BB58BB"/>
<path fill-rule="evenodd" clip-rule="evenodd" d="M88.0002 72.5V76C87.999 78.2467 87.7982 80.4889 87.4002 82.7C87.206 83.8271 86.7872 84.9036 86.1688 85.8656C85.5504 86.8276 84.7449 87.6555 83.8002 88.3H83.7002C81.7065 89.813 79.3003 90.6848 76.8002 90.8L74.9002 91C73.4092 91.0914 71.9175 90.8314 70.5453 90.2408C69.1731 89.6503 67.9588 88.7457 67.0002 87.6C66.0028 86.3916 65.3469 84.9383 65.1007 83.3909C64.8546 81.8434 65.027 80.2583 65.6002 78.8V78.7C66.1238 77.2737 66.9908 75.9984 68.1245 74.9868C69.2582 73.9752 70.6237 73.2585 72.1002 72.9L79.6002 70.9C80.5436 70.6752 81.3831 70.1378 81.9823 69.3753C82.5815 68.6127 82.905 67.6698 82.9002 66.7V61.6V40.1C82.9071 39.8518 82.8565 39.6053 82.7524 39.3798C82.6483 39.1543 82.4936 38.9559 82.3002 38.8C82.1016 38.6533 81.874 38.5507 81.6326 38.4989C81.3912 38.4472 81.1415 38.4476 80.9002 38.5L48.9002 45C48.333 45.0907 47.8179 45.3838 47.4502 45.825C47.0825 46.2663 46.8871 46.8258 46.9002 47.4V81.6V84.1C46.899 86.3467 46.6982 88.5889 46.3002 90.8C46.106 91.9271 45.6872 93.0036 45.0688 93.9656C44.4504 94.9276 43.6449 95.7555 42.7002 96.4H42.6002C40.6065 97.913 38.2003 98.7848 35.7002 98.9L33.9002 99C32.4092 99.0914 30.9175 98.8314 29.5453 98.2408C28.1731 97.6503 26.9588 96.7457 26.0002 95.6C25.0028 94.3916 24.3469 92.9383 24.1007 91.3909C23.8546 89.8434 24.027 88.2583 24.6002 86.8V86.7C25.1238 85.2737 25.9908 83.9984 27.1245 82.9868C28.2582 81.9752 29.6237 81.2585 31.1002 80.9L38.6002 78.9C39.5436 78.6752 40.3832 78.1378 40.9823 77.3753C41.5815 76.6127 41.905 75.6698 41.9002 74.7V69.6V29.9C41.9113 29.0469 42.2155 28.2235 42.7617 27.568C43.308 26.9125 44.063 26.4648 44.9002 26.3L85.0002 19C85.7373 18.9136 86.4812 19.0907 87.1002 19.5C87.3811 19.7307 87.6075 20.0207 87.7631 20.3492C87.9187 20.6777 87.9997 21.0365 88.0002 21.4V72.5Z" fill="url(#paint1_radial_283_22)"/>
<path fill-rule="evenodd" clip-rule="evenodd" d="M88.0002 72.5V76C87.999 78.2467 87.7982 80.4889 87.4002 82.7C87.206 83.8271 86.7872 84.9036 86.1688 85.8656C85.5504 86.8276 84.7449 87.6555 83.8002 88.3H83.7002C81.7065 89.813 79.3003 90.6848 76.8002 90.8L74.9002 91C73.4092 91.0914 71.9175 90.8314 70.5453 90.2408C69.1731 89.6503 67.9588 88.7457 67.0002 87.6C66.0028 86.3916 65.3469 84.9383 65.1007 83.3909C64.8546 81.8434 65.027 80.2583 65.6002 78.8V78.7C66.1238 77.2737 66.9908 75.9984 68.1245 74.9868C69.2582 73.9752 70.6237 73.2585 72.1002 72.9L79.6002 70.9C80.5436 70.6752 81.3831 70.1378 81.9823 69.3753C82.5815 68.6127 82.905 67.6698 82.9002 66.7V61.6V40.1C82.9071 39.8518 82.8565 39.6053 82.7524 39.3798C82.6483 39.1543 82.4936 38.9559 82.3002 38.8C82.1016 38.6533 81.874 38.5507 81.6326 38.4989C81.3912 38.4472 81.1415 38.4476 80.9002 38.5L48.9002 45C48.333 45.0907 47.8179 45.3838 47.4502 45.825C47.0825 46.2663 46.8871 46.8258 46.9002 47.4V81.6V84.1C46.899 86.3467 46.6982 88.5889 46.3002 90.8C46.106 91.9271 45.6872 93.0036 45.0688 93.9656C44.4504 94.9276 43.6449 95.7555 42.7002 96.4H42.6002C40.6065 97.913 38.2003 98.7848 35.7002 98.9L33.9002 99C32.4092 99.0914 30.9175 98.8314 29.5453 98.2408C28.1731 97.6503 26.9588 96.7457 26.0002 95.6C25.0028 94.3916 24.3469 92.9383 24.1007 91.3909C23.8546 89.8434 24.027 88.2583 24.6002 86.8V86.7C25.1238 85.2737 25.9908 83.9984 27.1245 82.9868C28.2582 81.9752 29.6237 81.2585 31.1002 80.9L38.6002 78.9C39.5436 78.6752 40.3832 78.1378 40.9823 77.3753C41.5815 76.6127 41.905 75.6698 41.9002 74.7V69.6V29.9C41.9113 29.0469 42.2155 28.2235 42.7617 27.568C43.308 26.9125 44.063 26.4648 44.9002 26.3L85.0002 19C85.7373 18.9136 86.4812 19.0907 87.1002 19.5C87.3811 19.7307 87.6075 20.0207 87.7631 20.3492C87.9187 20.6777 87.9997 21.0365 88.0002 21.4V72.5Z" fill="url(#paint2_radial_283_22)"/>
<path fill-rule="evenodd" clip-rule="evenodd" d="M88.0002 72.5V76C87.999 78.2467 87.7982 80.4889 87.4002 82.7C87.206 83.8271 86.7872 84.9036 86.1688 85.8656C85.5504 86.8276 84.7449 87.6555 83.8002 88.3H83.7002C81.7065 89.813 79.3003 90.6848 76.8002 90.8L74.9002 91C73.4092 91.0914 71.9175 90.8314 70.5453 90.2408C69.1731 89.6503 67.9588 88.7457 67.0002 87.6C66.0028 86.3916 65.3469 84.9383 65.1007 83.3909C64.8546 81.8434 65.027 80.2583 65.6002 78.8V78.7C66.1238 77.2737 66.9908 75.9984 68.1245 74.9868C69.2582 73.9752 70.6237 73.2585 72.1002 72.9L79.6002 70.9C80.5436 70.6752 81.3831 70.1378 81.9823 69.3753C82.5815 68.6127 82.905 67.6698 82.9002 66.7V61.6V40.1C82.9071 39.8518 82.8565 39.6053 82.7524 39.3798C82.6483 39.1543 82.4936 38.9559 82.3002 38.8C82.1016 38.6533 81.874 38.5507 81.6326 38.4989C81.3912 38.4472 81.1415 38.4476 80.9002 38.5L48.9002 45C48.333 45.0907 47.8179 45.3838 47.4502 45.825C47.0825 46.2663 46.8871 46.8258 46.9002 47.4V81.6V84.1C46.899 86.3467 46.6982 88.5889 46.3002 90.8C46.106 91.9271 45.6872 93.0036 45.0688 93.9656C44.4504 94.9276 43.6449 95.7555 42.7002 96.4H42.6002C40.6065 97.913 38.2003 98.7848 35.7002 98.9L33.9002 99C32.4092 99.0914 30.9175 98.8314 29.5453 98.2408C28.1731 97.6503 26.9588 96.7457 26.0002 95.6C25.0028 94.3916 24.3469 92.9383 24.1007 91.3909C23.8546 89.8434 24.027 88.2583 24.6002 86.8V86.7C25.1238 85.2737 25.9908 83.9984 27.1245 82.9868C28.2582 81.9752 29.6237 81.2585 31.1002 80.9L38.6002 78.9C39.5436 78.6752 40.3832 78.1378 40.9823 77.3753C41.5815 76.6127 41.905 75.6698 41.9002 74.7V69.6V29.9C41.9113 29.0469 42.2155 28.2235 42.7617 27.568C43.308 26.9125 44.063 26.4648 44.9002 26.3L85.0002 19C85.7373 18.9136 86.4812 19.0907 87.1002 19.5C87.3811 19.7307 87.6075 20.0207 87.7631 20.3492C87.9187 20.6777 87.9997 21.0365 88.0002 21.4V72.5Z" fill="url(#paint3_linear_283_22)"/>
<path fill-rule="evenodd" clip-rule="evenodd" d="M88.0002 72.5V76C87.999 78.2467 87.7982 80.4889 87.4002 82.7C87.206 83.8271 86.7872 84.9036 86.1688 85.8656C85.5504 86.8276 84.7449 87.6555 83.8002 88.3H83.7002C81.7065 89.813 79.3003 90.6848 76.8002 90.8L74.9002 91C73.4092 91.0914 71.9175 90.8314 70.5453 90.2408C69.1731 89.6503 67.9588 88.7457 67.0002 87.6C66.0028 86.3916 65.3469 84.9383 65.1007 83.3909C64.8546 81.8434 65.027 80.2583 65.6002 78.8V78.7C66.1238 77.2737 66.9908 75.9984 68.1245 74.9868C69.2582 73.9752 70.6237 73.2585 72.1002 72.9L79.6002 70.9C80.5436 70.6752 81.3831 70.1378 81.9823 69.3753C82.5815 68.6127 82.905 67.6698 82.9002 66.7V61.6V40.1C82.9071 39.8518 82.8565 39.6053 82.7524 39.3798C82.6483 39.1543 82.4936 38.9559 82.3002 38.8C82.1016 38.6533 81.874 38.5507 81.6326 38.4989C81.3912 38.4472 81.1415 38.4476 80.9002 38.5L48.9002 45C48.333 45.0907 47.8179 45.3838 47.4502 45.825C47.0825 46.2663 46.8871 46.8258 46.9002 47.4V81.6V84.1C46.899 86.3467 46.6982 88.5889 46.3002 90.8C46.106 91.9271 45.6872 93.0036 45.0688 93.9656C44.4504 94.9276 43.6449 95.7555 42.7002 96.4H42.6002C40.6065 97.913 38.2003 98.7848 35.7002 98.9L33.9002 99C32.4092 99.0914 30.9175 98.8314 29.5453 98.2408C28.1731 97.6503 26.9588 96.7457 26.0002 95.6C25.0028 94.3916 24.3469 92.9383 24.1007 91.3909C23.8546 89.8434 24.027 88.2583 24.6002 86.8V86.7C25.1238 85.2737 25.9908 83.9984 27.1245 82.9868C28.2582 81.9752 29.6237 81.2585 31.1002 80.9L38.6002 78.9C39.5436 78.6752 40.3832 78.1378 40.9823 77.3753C41.5815 76.6127 41.905 75.6698 41.9002 74.7V69.6V29.9C41.9113 29.0469 42.2155 28.2235 42.7617 27.568C43.308 26.9125 44.063 26.4648 44.9002 26.3L85.0002 19C85.7373 18.9136 86.4812 19.0907 87.1002 19.5C87.3811 19.7307 87.6075 20.0207 87.7631 20.3492C87.9187 20.6777 87.9997 21.0365 88.0002 21.4V72.5Z" fill="white"/>
</g>
<defs>
<linearGradient id="paint0_linear_283_22" x1="60.0001" y1="120" x2="60.0001" y2="5.72205e-05" gradientUnits="userSpaceOnUse">
<stop stop-color="#FD355A"/>
<stop offset="1" stop-color="#FD5163"/>
</linearGradient>
<radialGradient id="paint1_radial_283_22" cx="0" cy="0" r="1" gradientUnits="userSpaceOnUse" gradientTransform="translate(37.6202 90.3884) rotate(90) scale(50.6131)">
<stop stop-color="#7470F9"/>
<stop offset="1" stop-color="#7A70FE" stop-opacity="0"/>
</radialGradient>
<radialGradient id="paint2_radial_283_22" cx="0" cy="0" r="1" gradientUnits="userSpaceOnUse" gradientTransform="translate(77.5514 78.8361) rotate(-105.538) scale(40.854 40.854)">
<stop stop-color="#4CA3F8"/>
<stop offset="0.362" stop-color="#4CA4F7"/>
<stop offset="1" stop-color="#4AA2F9" stop-opacity="0"/>
</radialGradient>
<linearGradient id="paint3_linear_283_22" x1="48.302" y1="34.384" x2="65.9271" y2="66.381" gradientUnits="userSpaceOnUse">
<stop stop-color="#FF6380"/>
<stop offset="1" stop-color="#F65E79" stop-opacity="0"/>
</linearGradient>
<clipPath id="clip0_283_22">
<rect width="120" height="120" rx="60" fill="white"/>
</clipPath>
</defs>
</svg>
