<svg width="24" height="24" viewBox="0 0 24 24" fill="none" xmlns="http://www.w3.org/2000/svg">
<rect x="4.70703" y="8.71484" width="7.89453" height="11.4531" fill="#FFDD57"/>
<rect x="11.6504" y="3.64062" width="7.61133" height="16.5273" fill="#FFDD57"/>
<path fill-rule="evenodd" clip-rule="evenodd" d="M3.25 10.5V18.095C3.24992 18.4911 3.34034 18.8819 3.51434 19.2377C3.68834 19.5935 3.94133 19.9049 4.254 20.148C5.36081 21.0087 6.70305 21.5127 8.10281 21.5933C9.50258 21.6738 10.8938 21.3271 12.092 20.599C13.224 21.2231 14.5056 21.5244 15.7971 21.4701C17.0886 21.4157 18.3404 21.0079 19.416 20.291L19.543 20.206C19.9144 19.9584 20.2188 19.6229 20.4294 19.2293C20.6399 18.8358 20.7501 18.3963 20.75 17.95V5.5C20.75 4.414 19.966 3.588 19.046 3.077C18.101 2.551 16.846 2.25 15.5 2.25C14.154 2.25 12.9 2.551 11.954 3.077C11.034 3.587 10.25 4.414 10.25 5.5V7.428C9.67437 7.30845 9.08791 7.2488 8.5 7.25C7.154 7.25 5.9 7.551 4.954 8.077C4.034 8.587 3.25 9.414 3.25 10.5ZM12.682 4.388C11.974 4.782 11.75 5.206 11.75 5.5C11.75 5.794 11.974 6.218 12.682 6.612C13.366 6.992 14.36 7.25 15.5 7.25C16.64 7.25 17.634 6.992 18.318 6.612C19.026 6.218 19.25 5.794 19.25 5.5C19.25 5.206 19.026 4.782 18.318 4.388C17.634 4.008 16.64 3.75 15.5 3.75C14.36 3.75 13.366 4.008 12.682 4.388ZM11.75 7.924V7.804C11.817 7.845 11.885 7.885 11.954 7.924C12.899 8.449 14.154 8.75 15.5 8.75C16.846 8.75 18.1 8.449 19.046 7.923C19.115 7.885 19.183 7.845 19.25 7.803V9.543C19.25 9.89 19.076 10.214 18.788 10.407L18.333 10.71C17.6608 11.158 16.88 11.4158 16.0732 11.4563C15.2664 11.4968 14.4637 11.3184 13.75 10.94V10.5C13.75 9.414 12.966 8.588 12.046 8.077C11.949 8.02291 11.8502 7.97189 11.75 7.924ZM13.75 12.582C14.6375 12.9145 15.5913 13.0313 16.5327 12.9229C17.4742 12.8144 18.3764 12.4837 19.165 11.958L19.25 11.901V13.844C19.25 14.285 19.01 14.692 18.625 14.906L18.288 15.093C17.5996 15.4756 16.8328 15.6957 16.0462 15.7365C15.2597 15.7772 14.4742 15.6375 13.75 15.328V12.583V12.582ZM12.25 16.5V18.095C12.25 18.435 12.093 18.755 11.825 18.964C10.8743 19.7032 9.7043 20.1045 8.5 20.1045C7.2957 20.1045 6.12574 19.7032 5.175 18.964C5.04262 18.8611 4.93551 18.7293 4.86185 18.5787C4.78819 18.4281 4.74993 18.2627 4.75 18.095V16.5C5.86781 17.2211 7.1698 17.6045 8.5 17.6045C9.8302 17.6045 11.1322 17.2211 12.25 16.5ZM4.75 14.095V12.803C4.817 12.845 4.885 12.885 4.954 12.923C5.899 13.449 7.154 13.75 8.5 13.75C9.846 13.75 11.1 13.449 12.046 12.923C12.115 12.885 12.183 12.845 12.25 12.803V14.095C12.25 14.435 12.093 14.755 11.825 14.963C10.8743 15.7022 9.7043 16.1035 8.5 16.1035C7.2957 16.1035 6.12574 15.7022 5.175 14.963C5.04275 14.8602 4.93572 14.7286 4.86207 14.5782C4.78841 14.4277 4.75008 14.2625 4.75 14.095ZM4.75 10.5C4.75 10.794 4.974 11.218 5.682 11.612C6.366 11.992 7.36 12.25 8.5 12.25C9.64 12.25 10.634 11.992 11.318 11.612C12.026 11.218 12.25 10.794 12.25 10.5C12.25 10.206 12.026 9.782 11.318 9.388C10.634 9.008 9.64 8.75 8.5 8.75C7.36 8.75 6.366 9.008 5.682 9.388C4.974 9.782 4.75 10.206 4.75 10.5ZM13.75 18.095C13.7502 18.6057 13.5999 19.1051 13.318 19.531C14.1673 19.8933 15.0934 20.0384 16.0127 19.9532C16.9321 19.868 17.8158 19.5552 18.584 19.043L18.711 18.958C19.048 18.734 19.25 18.355 19.25 17.95V16.275L19.016 16.405C18.2204 16.847 17.3427 17.1213 16.437 17.2111C15.5314 17.3009 14.6169 17.2042 13.75 16.927V18.095Z" fill="#B38F00"/>
</svg>
