<svg width="120" height="118" viewBox="0 0 120 118" fill="none" xmlns="http://www.w3.org/2000/svg">
<path fill-rule="evenodd" clip-rule="evenodd" d="M100.642 18.0027C101.729 11.675 103.325 7.69591 105.093 7.68829H105.097C108.393 7.6997 111.065 21.4991 111.065 38.5366C111.065 55.5738 108.389 69.3847 105.089 69.3847C103.736 69.3847 102.488 67.0397 101.483 63.1101C99.8944 77.4948 96.5981 87.3837 92.7823 87.3837C89.8298 87.3837 87.18 81.4436 85.4011 72.0754C84.1864 89.8919 81.1293 102.532 77.5563 102.532C75.314 102.532 73.2696 97.5233 71.7561 89.3675C69.936 106.203 65.7316 118 60.828 118C55.9247 118 51.7129 106.207 49.9002 89.3675C48.3977 97.5233 46.3536 102.532 44.0998 102.532C40.527 102.532 37.4773 89.8919 36.2552 72.0754C34.4763 81.4436 31.8341 87.3837 28.874 87.3837C25.0619 87.3837 21.7619 77.4987 20.1736 63.1101C19.1757 67.0513 17.92 69.3847 16.5671 69.3847C13.267 69.3847 10.5911 55.5738 10.5911 38.5366C10.5911 21.4991 13.267 7.68829 16.5671 7.68829C18.3385 7.68829 19.9232 11.6788 21.0219 18.0027C22.7822 7.09163 25.6413 0 28.874 0C32.7123 0 36.0385 10.0294 37.6119 24.5927C39.1516 13.9932 41.4875 7.23605 44.1037 7.23605C47.7698 7.23605 50.8869 20.5262 52.0418 39.0649C54.2131 29.5597 57.3561 23.597 60.8356 23.597C64.3151 23.597 67.4581 29.5637 69.6257 39.0649C70.7844 20.5262 73.8975 7.23605 77.5639 7.23605C80.1762 7.23605 82.5084 13.9932 84.0556 24.5927C85.6252 10.0294 88.9514 0 92.7897 0C96.0113 0 98.8815 7.09544 100.642 18.0027ZM2.05176 35.5025C2.05176 27.8863 3.56912 21.7106 5.44151 21.7106C7.3139 21.7106 8.83127 27.8863 8.83127 35.5025C8.83127 43.1184 7.3139 49.2943 5.44151 49.2943C3.56912 49.2943 2.05176 43.1184 2.05176 35.5025ZM112.823 35.5025C112.823 27.8863 114.34 21.7106 116.212 21.7106C118.085 21.7106 119.602 27.8863 119.602 35.5025C119.602 43.1184 118.085 49.2943 116.212 49.2943C114.34 49.2943 112.823 43.1184 112.823 35.5025Z" fill="#A238FF"/>
</svg>
