<svg width="32" height="32" viewBox="0 0 32 32" fill="none" xmlns="http://www.w3.org/2000/svg">
<rect width="32" height="32" rx="16" fill="white"/>
<path fill-rule="evenodd" clip-rule="evenodd" d="M13.2182 1.22135C13.5277 0.908908 14.0603 1.12804 14.0603 1.56778V12.6914H17.728V1.57569C17.728 1.13818 18.256 0.918036 18.5668 1.22598L30.7786 13.3263C31.0909 13.6358 30.8717 14.1683 30.4321 14.1683H19.2049V17.8316H30.4321C30.8717 17.8316 31.0909 18.3642 30.7786 18.6737L18.5668 30.774C18.256 31.0819 17.728 30.8618 17.728 30.4243V19.3086H14.0603V30.4322C14.0603 30.8719 13.5277 31.091 13.2182 30.7786L1.2262 18.6704C0.918365 18.3596 1.13853 17.8316 1.57599 17.8316H12.5834V14.1683H1.57599C1.13853 14.1683 0.918365 13.6404 1.2262 13.3296L13.2182 1.22135ZM12.5834 12.6914V3.96116L3.93694 12.6914H12.5834ZM14.0603 14.1683V17.8316H17.728V14.1683H14.0603ZM12.5834 19.3086H3.93694L12.5834 28.0388V19.3086ZM19.2049 19.3086V28.0625L28.0395 19.3086H19.2049ZM19.2049 12.6914H28.0395L19.2049 3.93744V12.6914Z" fill="black"/>
</svg>
