<svg width="120" height="120" viewBox="0 0 120 120" fill="none" xmlns="http://www.w3.org/2000/svg">
<g clip-path="url(#clip0_284_81)">
<path d="M59.9999 119.88C93.0708 119.88 119.88 93.0709 119.88 60C119.88 26.929 93.0708 0.119751 59.9999 0.119751C26.9289 0.119751 0.119629 26.929 0.119629 60C0.119629 93.0709 26.9289 119.88 59.9999 119.88Z" fill="#FF8800"/>
<path fill-rule="evenodd" clip-rule="evenodd" d="M27.5448 68.5781C27.6945 68.5781 27.8203 68.4562 27.8421 68.2865L28.6424 61.9754L27.8421 55.5224C27.8182 55.3508 27.6945 55.2329 27.5448 55.2329C27.3909 55.2329 27.2652 55.3547 27.2472 55.5245L26.5388 61.9754L27.2472 68.2847C27.2673 68.4562 27.3909 68.5781 27.5448 68.5781ZM24.8882 66.179C25.0338 66.179 25.1535 66.0631 25.1757 65.8994L25.7984 61.9754L25.1757 57.9835C25.1535 57.8179 25.0359 57.7041 24.8882 57.7041C24.7385 57.7041 24.6188 57.8197 24.5987 57.9856L24.0718 61.9775L24.5987 65.8994C24.6188 66.0652 24.7385 66.179 24.8882 66.179ZM30.7263 54.3209C30.7044 54.1173 30.5547 53.9697 30.367 53.9697C30.1775 53.9697 30.0236 54.1173 30.0056 54.3209C30.0056 54.323 29.335 61.9775 29.335 61.9775L30.0056 69.3523C30.0236 69.5601 30.1775 69.7056 30.367 69.7056C30.5547 69.7056 30.7044 69.5598 30.7263 69.3544L31.4906 61.9775L30.7263 54.3209ZM33.2134 70.0012C33.4329 70.0012 33.6146 69.8254 33.6344 69.5901L34.3529 61.9814L33.6344 54.1113C33.6146 53.8778 33.4329 53.6982 33.2134 53.6982C32.9897 53.6982 32.8101 53.8757 32.7921 54.1134L32.1595 61.9814L32.7921 69.5901C32.8101 69.8254 32.9897 70.0012 33.2134 70.0012ZM36.0814 70.1269C36.3388 70.1269 36.5466 69.9233 36.5664 69.6517L37.2451 61.9814L36.5646 54.6802C36.5466 54.4128 36.3388 54.2071 36.0814 54.2071C35.8239 54.2071 35.6185 54.4128 35.6005 54.6841L35.0035 61.9814L35.6005 69.6538C35.6164 69.9233 35.8239 70.1269 36.0814 70.1269ZM40.1532 61.9835L39.5206 50.1095C39.5026 49.808 39.2649 49.5706 38.9775 49.5706C38.6861 49.5706 38.4466 49.808 38.4346 50.1095L37.8739 61.9835L38.4346 69.6556C38.4487 69.955 38.6882 70.1928 38.9775 70.1928C39.267 70.1928 39.5044 69.9571 39.5206 69.6538V69.6577L40.1532 61.9835ZM41.8897 70.2047C42.2131 70.2047 42.4805 69.9413 42.4963 69.6059V69.6119L43.0891 61.9853L42.4963 47.3949C42.4805 47.0595 42.2131 46.7961 41.8897 46.7961C41.5643 46.7961 41.2987 47.0595 41.285 47.3949C41.285 47.397 40.758 61.9853 40.758 61.9853L41.285 69.6077C41.2987 69.9413 41.5643 70.2047 41.8897 70.2047ZM44.8278 45.5188C44.4646 45.5188 44.173 45.8101 44.161 46.1814L43.6721 61.9853L44.161 69.532C44.173 69.8994 44.4646 70.1907 44.8278 70.1907C45.187 70.1907 45.4784 69.8994 45.4942 69.5281V69.5341L46.0433 61.9853L45.4942 46.1814C45.4805 45.8101 45.187 45.5188 44.8278 45.5188ZM47.7897 70.2047C48.185 70.2047 48.5062 69.8895 48.5182 69.4823V69.4862L49.0272 61.9874L48.5182 45.6485C48.5062 45.2413 48.185 44.9239 47.7897 44.9239C47.3924 44.9239 47.0733 45.2413 47.0631 45.6485L46.608 61.9874L47.0631 69.4862C47.0712 69.8895 47.3924 70.2047 47.7897 70.2047ZM50.7757 70.1967C51.2047 70.1967 51.5541 69.8532 51.564 69.4104V69.4182L52.0332 61.9853L51.564 46.0637C51.5541 45.6245 51.2047 45.2793 50.7757 45.2793C50.3424 45.2793 49.9933 45.6245 49.9852 46.0655L49.57 61.9853L49.9852 69.4143C49.9933 69.8532 50.3424 70.1967 50.7757 70.1967ZM55.061 61.9895L54.632 46.6485C54.6218 46.1733 54.2487 45.802 53.7817 45.802C53.3146 45.802 52.9391 46.1754 52.9293 46.6485L52.552 61.9895L52.9293 69.3703C52.9391 69.8395 53.3125 70.2125 53.7817 70.2125C54.2466 70.2125 54.6218 69.8395 54.632 69.3664V69.3703L55.061 61.9895ZM56.8155 70.2266C57.3065 70.2266 57.7176 69.8194 57.7236 69.3185V69.3245L58.1089 61.9913L57.7236 43.7365C57.7176 43.2353 57.3065 42.8263 56.8155 42.8263C56.3185 42.8263 55.9092 43.2353 55.9032 43.7365L55.558 61.9853C55.558 61.9994 55.9032 69.3245 55.9032 69.3245C55.9092 69.8194 56.3185 70.2266 56.8155 70.2266ZM59.8332 41.1137C59.3002 41.1137 58.8652 41.5488 58.8592 42.0838L58.4601 61.9934L58.8592 69.2188C58.8652 69.7476 59.3023 70.1808 59.8332 70.1808C60.3601 70.1808 60.7972 69.7455 60.8032 69.2128V69.2188L61.2364 61.9934L60.8032 42.0817C60.7972 41.5467 60.3601 41.1137 59.8332 41.1137ZM62.5936 70.2326C62.6158 70.2347 86.9323 70.2485 87.09 70.2485C91.97 70.2485 95.9281 66.2907 95.9281 61.4086C95.9281 56.5263 91.9721 52.5703 87.09 52.5703C85.8805 52.5703 84.7248 52.8158 83.673 53.255C82.9703 45.2892 76.29 39.0419 68.1424 39.0419C66.1484 39.0419 64.2065 39.435 62.49 40.0979C61.8212 40.3571 61.6457 40.6227 61.6397 41.1377V69.1889C61.6457 69.7296 62.0628 70.1787 62.5936 70.2326Z" fill="white"/>
</g>
<defs>
<clipPath id="clip0_284_81">
<rect width="120" height="120" fill="white"/>
</clipPath>
</defs>
</svg>
