<svg width="120" height="120" viewBox="0 0 120 120" fill="none" xmlns="http://www.w3.org/2000/svg">
<g clip-path="url(#clip0_299_111)">
<path d="M87.7817 86.5322C88.8647 84.7739 88.3007 82.4744 86.5417 81.3919C70.7198 71.7263 51.1043 69.4781 28.2367 74.7048C26.2213 75.1628 24.9653 77.1676 25.4203 79.1821C25.8817 81.1933 27.8906 82.4584 29.9028 81.994C50.7967 77.2253 68.5443 79.1693 82.6391 87.7812C84.4014 88.8573 86.7051 88.3032 87.7817 86.5322Z" fill="white"/>
<path d="M103.455 51.223C105.034 48.5616 104.156 45.1155 101.494 43.5334C79.219 30.3161 43.9642 29.0703 22.7627 35.5076C19.7957 36.4075 18.1264 39.5429 19.0203 42.5086C19.9175 45.4742 23.0575 47.146 26.0213 46.2493C44.4993 40.6446 76.4122 41.7015 95.7649 53.1862C98.4243 54.7683 101.878 53.8908 103.455 51.223Z" fill="white"/>
<path d="M93.6145 63.7711C75.0819 52.3889 47.9688 49.1863 26.1713 55.7997C23.6978 56.5524 22.3008 59.1593 23.0409 61.635C23.7907 64.101 26.4052 65.4973 28.8788 64.7511C47.9624 58.9607 72.5891 61.8335 88.7186 71.7425C90.9198 73.094 93.3165 72.4055 95.1781 70.202C97.0396 67.9986 95.8157 65.1226 93.6145 63.7711Z" fill="white"/>
<path d="M59.8046 2.8633e-07C26.2929 -0.00320236 0 26.8606 0 59.9952C0 93.1362 26.9881 120 60.141 120C93.297 120 120 93.1394 120 59.9952C120 26.8638 93.3162 2.8633e-07 59.8046 2.8633e-07ZM29.9039 81.9942C27.8917 82.4586 25.8827 81.1967 25.4213 79.1823C24.9664 77.171 26.2224 75.1629 28.2377 74.7049C51.1054 69.4782 70.7177 71.7265 86.5428 81.3921C88.305 82.4746 88.869 84.7741 87.7828 86.5355L87.786 86.5323C86.7094 88.3002 84.4024 88.8542 82.6434 87.7782C68.5453 79.1662 50.7978 77.2254 29.9039 81.9942ZM95.1778 70.202C93.3162 72.4023 90.9164 73.0908 88.7152 71.7393C72.5857 61.8303 47.9718 58.9575 28.8882 64.7479C26.4146 65.4941 23.7905 64.101 23.0407 61.6317C22.2973 59.1561 23.6879 56.5491 26.1615 55.7965C47.9622 49.1863 75.0849 52.3857 93.6174 63.7679C95.8154 65.1226 97.0394 68.0018 95.1778 70.202ZM95.7642 53.1864C76.4146 41.7017 44.4986 40.6448 26.0205 46.2494C23.0567 47.1462 19.9167 45.4744 19.0195 42.5087C18.1224 39.5431 19.7949 36.4077 22.7619 35.5078C43.9635 29.0704 79.2182 30.3163 101.493 43.5336C104.159 45.1157 105.034 48.5617 103.454 51.2231C101.878 53.891 98.4236 54.7685 95.7642 53.1864Z" fill="black"/>
</g>
<defs>
<clipPath id="clip0_299_111">
<rect width="120" height="120" fill="white"/>
</clipPath>
</defs>
</svg>
