<svg width="120" height="120" viewBox="0 0 120 120" fill="none" xmlns="http://www.w3.org/2000/svg">
<g clip-path="url(#clip0_299_136)">
<path fill-rule="evenodd" clip-rule="evenodd" d="M-0.662854 55.7569C22.4741 55.7567 36.9197 45.8236 49.5908 37.1105C59.4897 30.3039 68.3058 24.2417 79.3369 24.2417C95.7557 24.2417 110.092 35.8507 117.693 42.0063C118.765 42.8743 119.703 43.6339 120.494 44.2372C120.549 48.4469 120.549 53.0769 120.549 58.1818V63.0303C120.549 90.4575 120.549 104.171 112.029 112.692C103.885 120.835 90.9983 121.195 65.9297 121.211H53.956C28.8875 121.195 16.0008 120.835 7.85744 112.692C-0.663089 104.171 -0.663088 90.4575 -0.663086 63.0303L-0.663085 58.1818C-0.663085 57.3613 -0.663085 56.5531 -0.662854 55.7569Z" fill="black"/>
<path d="M93.2769 61.788C93.2769 58.7923 95.7356 56.3638 98.7314 56.3638C101.727 56.3638 104.186 58.7923 104.186 61.788V83.6668C104.186 86.6624 101.727 89.091 98.7314 89.091C95.7356 89.091 93.2769 86.6624 93.2769 83.6668V61.788Z" fill="white"/>
<path d="M73.8838 47.8487C73.8838 44.8529 76.3426 42.4244 79.3383 42.4244C82.3341 42.4244 84.7929 44.8529 84.7929 47.8487V97.6063C84.7929 100.602 82.3341 103.031 79.3383 103.031C76.3426 103.031 73.8838 100.602 73.8838 97.6063V47.8487Z" fill="white"/>
<path d="M54.4897 61.788C54.4897 58.7923 56.9485 56.3638 59.9443 56.3638C62.94 56.3638 65.3988 58.7923 65.3988 61.788V83.6668C65.3988 86.6624 62.94 89.091 59.9443 89.091C56.9485 89.091 54.4897 86.6624 54.4897 83.6668V61.788Z" fill="white"/>
<path d="M35.0933 69.6665C35.0933 66.6708 37.5522 64.2423 40.5478 64.2423C43.5436 64.2423 46.0023 66.6708 46.0023 69.6665V75.7878C46.0023 78.7835 43.5436 81.212 40.5478 81.212C37.5522 81.212 35.0933 78.7835 35.0933 75.7878V69.6665Z" fill="white"/>
<path d="M15.6992 69.6665C15.6992 66.6708 18.1581 64.2423 21.1538 64.2423C24.1495 64.2423 26.6083 66.6708 26.6083 69.6665V75.7878C26.6083 78.7835 24.1495 81.212 21.1538 81.212C18.1581 81.212 15.6992 78.7835 15.6992 75.7878V69.6665Z" fill="white"/>
</g>
<defs>
<clipPath id="clip0_299_136">
<rect width="120" height="120" rx="60" fill="white"/>
</clipPath>
</defs>
</svg>
