<svg width="120" height="120" viewBox="0 0 120 120" fill="none" xmlns="http://www.w3.org/2000/svg">
<g clip-path="url(#clip0_283_46)">
<path fill-rule="evenodd" clip-rule="evenodd" d="M7.85744 8.52053C-0.408174 16.7862 -0.65545 29.9388 -0.662842 55.7569C22.4741 55.7567 36.9197 45.8236 49.5908 37.1105C59.4898 30.3039 68.3058 24.2417 79.337 24.2417C95.7557 24.2417 110.092 35.8507 117.693 42.0063C118.765 42.8743 119.703 43.6339 120.494 44.2372C120.254 25.8296 118.963 15.4552 112.028 8.52053C103.508 4.04589e-06 89.7944 2.82162e-06 62.3672 4.23867e-07L57.5187 0C30.0915 6.84999e-06 16.378 5.77984e-06 7.85744 8.52053ZM53.9552 121.211C55.1166 121.212 56.3043 121.212 57.5188 121.212H62.3672C63.5816 121.212 64.7692 121.212 65.9306 121.211H53.9552Z" fill="#0077FF"/>
<path fill-rule="evenodd" clip-rule="evenodd" d="M-0.66261 55.7569C22.4743 55.7567 36.9199 45.8236 49.5911 37.1105C59.49 30.3039 68.3061 24.2417 79.3371 24.2417C95.7559 24.2417 110.092 35.8507 117.693 42.0063C118.765 42.8743 119.703 43.6339 120.495 44.2372C120.549 48.4469 120.549 53.0769 120.549 58.1818V63.0303C120.549 90.4575 120.549 104.171 112.029 112.692C103.885 120.835 90.9986 121.195 65.93 121.211H53.9563C28.8878 121.195 16.001 120.835 7.85768 112.692C-0.662845 104.171 -0.662844 90.4575 -0.662842 63.0303L-0.662841 58.1818C-0.662841 57.3613 -0.662841 56.5531 -0.66261 55.7569Z" fill="#F45FFF"/>
<path d="M93.2771 61.788C93.2771 58.7923 95.7359 56.3638 98.7316 56.3638C101.727 56.3638 104.186 58.7923 104.186 61.788V83.6668C104.186 86.6624 101.727 89.091 98.7316 89.091C95.7359 89.091 93.2771 86.6624 93.2771 83.6668V61.788Z" fill="white"/>
<path d="M73.8838 47.8487C73.8838 44.8529 76.3426 42.4244 79.3383 42.4244C82.3341 42.4244 84.7929 44.8529 84.7929 47.8487V97.6063C84.7929 100.602 82.3341 103.031 79.3383 103.031C76.3426 103.031 73.8838 100.602 73.8838 97.6063V47.8487Z" fill="white"/>
<path d="M54.4897 61.788C54.4897 58.7923 56.9485 56.3638 59.9443 56.3638C62.94 56.3638 65.3988 58.7923 65.3988 61.788V83.6668C65.3988 86.6624 62.94 89.091 59.9443 89.091C56.9485 89.091 54.4897 86.6624 54.4897 83.6668V61.788Z" fill="white"/>
<path d="M35.0935 69.6665C35.0935 66.6708 37.5524 64.2423 40.548 64.2423C43.5438 64.2423 46.0026 66.6708 46.0026 69.6665V75.7878C46.0026 78.7835 43.5438 81.212 40.548 81.212C37.5524 81.212 35.0935 78.7835 35.0935 75.7878V69.6665Z" fill="white"/>
<path d="M15.6997 69.6665C15.6997 66.6708 18.1586 64.2423 21.1543 64.2423C24.15 64.2423 26.6088 66.6708 26.6088 69.6665V75.7878C26.6088 78.7835 24.15 81.212 21.1543 81.212C18.1586 81.212 15.6997 78.7835 15.6997 75.7878V69.6665Z" fill="white"/>
</g>
<defs>
<clipPath id="clip0_283_46">
<rect width="120" height="120" rx="60" fill="white"/>
</clipPath>
</defs>
</svg>
