<svg width="120" height="120" viewBox="0 0 120 120" fill="none" xmlns="http://www.w3.org/2000/svg">
<g clip-path="url(#clip0_339_36)">
<circle cx="60" cy="60" r="50" fill="black"/>
<path d="M20 0C8.95429 0 0 8.95429 0 20V100C0 111.046 8.95429 120 20 120H100C111.046 120 120 111.046 120 100V20C120 8.95429 111.046 0 100 0H20ZM25.9598 25.7143H48.6384L64.7433 48.5993L84.2857 25.7143H91.4286L67.9688 53.1808L96.8973 94.2857H74.2243L55.5357 67.7344L32.8571 94.2857H25.7143L52.3103 63.1529L25.9598 25.7143ZM36.8973 31.4286L77.2042 88.5714H85.9598L45.6529 31.4286H36.8973Z" fill="white"/>
</g>
<defs>
<clipPath id="clip0_339_36">
<path d="M0 60C0 26.8629 26.8629 0 60 0V0C93.1371 0 120 26.8629 120 60V60C120 93.1371 93.1371 120 60 120V120C26.8629 120 0 93.1371 0 60V60Z" fill="white"/>
</clipPath>
</defs>
</svg>
