<svg width="120" height="120" viewBox="0 0 120 120" fill="none" xmlns="http://www.w3.org/2000/svg">
<g clip-path="url(#clip0_283_41)">
<path fill-rule="evenodd" clip-rule="evenodd" d="M118.863 45.75L118.403 43.4032L98.6129 39.9436L110.105 24.3871L108.774 22.9355L91.8629 31.0403L93.9919 9.50806L92.25 8.51613L81.9677 25.9355L70.4032 0H68.3952L71.129 25.0645L42.0484 1.79032L39.5806 2.51613L61.9597 30.6532L17.6371 15.8952L15.6532 18.1452L55.2097 40.6935L0.604839 45.2177L0 48.6048L56.7581 54.7742L9.43548 93.9436L11.4435 96.6532L67.7903 66.0242L56.6129 120H60.0242L81.629 69.2177L94.7903 108.968L97.1371 107.177L91.7177 66.75L112.234 90.0242L113.589 87.8952L97.8629 59.0323L119.806 67.1371L120 64.6935L100.355 50.2016L118.863 45.75Z" fill="#FFBC0D"/>
</g>
<defs>
<clipPath id="clip0_283_41">
<rect width="120" height="120" rx="60" fill="white"/>
</clipPath>
</defs>
</svg>
