<svg width="120" height="120" viewBox="0 0 120 120" fill="none" xmlns="http://www.w3.org/2000/svg">
<g clip-path="url(#clip0_299_116)">
<path d="M60 120C93.1371 120 120 93.1371 120 60C120 26.8629 93.1371 0 60 0C26.8629 0 0 26.8629 0 60C0 93.1371 26.8629 120 60 120Z" fill="black"/>
<path d="M59.9999 23.3038C39.7331 23.3038 23.3037 39.7332 23.3037 60.0001C23.3037 80.2669 39.7331 96.6963 59.9999 96.6963C80.2668 96.6963 96.6962 80.2669 96.6962 60.0001C96.6962 39.7332 80.2668 23.3038 59.9999 23.3038ZM59.9999 91.8155C42.4291 91.8155 28.1845 77.5709 28.1845 60.0001C28.1845 42.4293 42.4291 28.1846 59.9999 28.1846C77.5707 28.1846 91.8154 42.4293 91.8154 60.0001C91.8154 77.5709 77.5707 91.8155 59.9999 91.8155Z" fill="white"/>
<path d="M48.7974 77.5605V42.2484L79.4869 59.8295L48.7974 77.5605Z" fill="white"/>
</g>
<defs>
<clipPath id="clip0_299_116">
<rect width="120" height="120" fill="white"/>
</clipPath>
</defs>
</svg>
